PathFileType	4	(X/Y/Z)	c:\Git\powerlifing_model_clean\simulations\HC835B\Session1\HC835B_CUT_0005\marker_experimental.trc
DataRate	CameraRate	NumFrames	NumMarkers	Units	OrigDataRate	OrigDataStartFrame	OrigNumFrames
240.000000	240.000000	4	38	mm	240.000000	56	75
Frame#	Time	RPSI			LPSI			RASI			LASI			RTH1			RTH2			RTH3			RTH4			RSK1			RSK2			RSK3			RSK4			RCAL1			RCAL2			RCAL3			RST			RPT			RTN			RFMB			RSMB			RVMB			RFMH			RSMH			RVMH			RPM			LTH1			LTH2			LTH3			LTH4			LSK1			LSK2			LSK3			LSK4			LCAL1			LCAL2			LCAL3			LFMH			LVMH			
		X1	Y1	Z1	X2	Y2	Z2	X3	Y3	Z3	X4	Y4	Z4	X5	Y5	Z5	X6	Y6	Z6	X7	Y7	Z7	X8	Y8	Z8	X9	Y9	Z9	X10	Y10	Z10	X11	Y11	Z11	X12	Y12	Z12	X13	Y13	Z13	X14	Y14	Z14	X15	Y15	Z15	X16	Y16	Z16	X17	Y17	Z17	X18	Y18	Z18	X19	Y19	Z19	X20	Y20	Z20	X21	Y21	Z21	X22	Y22	Z22	X23	Y23	Z23	X24	Y24	Z24	X25	Y25	Z25	X26	Y26	Z26	X27	Y27	Z27	X28	Y28	Z28	X29	Y29	Z29	X30	Y30	Z30	X31	Y31	Z31	X32	Y32	Z32	X33	Y33	Z33	X34	Y34	Z34	X35	Y35	Z35	X36	Y36	Z36	X37	Y37	Z37	X38	Y38	Z38	

57	0.2333333333333333	-4.65823793411255	1032.694946289063	-844.3875122070315	-79.02816772460939	993.3762817382815	-776.8568115234377	-49.23511505126955	950.7986450195315	-1039.255126953125	-235.9690093994141	898.738952636719	-902.2987060546877	183.3681030273438	770.1710205078127	-954.4961547851565	156.087646484375	726.6339111328126	-986.9780883789065	208.8924865722657	690.3731079101564	-941.8994750976565	176.4623107910157	646.9633789062501	-964.0244140625002	463.1094665527345	384.5237426757814	-701.8709106445314	463.0305786132814	344.7825927734376	-749.1354370117189	489.857147216797	332.8369750976563	-695.6948242187501	479.981903076172	289.7067565917969	-736.6294555664064	535.9149169921876	231.4659118652344	-577.5421142578126	505.7662963867189	199.6967163085938	-552.6350097656251	570.6841430664064	201.0313262939454	-562.7282104492189	484.6452026367189	162.4486694335938	-611.9483032226564	587.8811035156251	169.9862213134766	-616.2122192382814	492.388885498047	141.0034484863282	-667.0308837890626	495.240447998047	106.8208236694336	-680.0161743164064	540.0883789062501	117.581657409668	-709.5789794921876	597.0842895507814	118.87255859375	-631.7423706054689	487.907928466797	53.54764938354494	-694.4901123046876	541.1998291015626	54.43775177001955	-723.5869140625001	608.6959228515626	55.80220031738283	-680.6115722656251	520.2526855468751	36.06306457519532	-759.2153320312501	-249.8967742919922	673.0142211914064	-959.8431396484377	-294.0693359375001	703.9036865234376	-986.779724121094	-276.7673034667969	637.3350219726564	-1033.060180664063	-309.1393737792969	675.6019897460939	-1069.085815429688	-74.40628814697267	317.6094970703126	-1154.940063476563	-92.8437957763672	288.7078857421876	-1196.54736328125	-49.27758407592775	270.9815063476563	-1177.824340820313	-61.87277984619142	253.7535400390626	-1231.602905273438	103.8976440429688	184.4430541992188	-1186.1220703125	99.6401062011719	136.5231018066407	-1182.732666015625	138.6077117919922	167.5292358398438	-1213.3291015625	15.39735507965088	168.2195129394532	-1399.332641601563	-20.77816581726075	92.43039703369142	-1328.769653320313	
58	0.2375	-14.83477592468262	1035.020141601563	-863.9538574218752	-88.85463714599611	995.0657958984377	-796.335632324219	-60.01798248291017	950.7779541015627	-1057.4208984375	-245.804428100586	900.6737060546877	-922.4558105468752	175.1847381591797	773.6226196289065	-972.8904418945315	148.3334655761719	729.2428588867189	-1004.694030761719	201.4991607666016	694.2578125000001	-958.9243774414065	169.6036071777344	650.1883544921876	-980.5262451171877	457.1763305664064	392.5070190429689	-712.4356079101564	458.3091125488282	352.7992553710938	-759.7719116210939	484.1321716308595	340.9177246093751	-705.8596801757814	475.4847412109376	297.8683166503907	-747.0390014648439	526.1141357421876	244.4714355468751	-589.3343505859376	495.5076293945314	213.9219055175782	-563.5663452148439	560.8888549804689	216.0431213378907	-570.8922119140626	477.5890502929689	171.9899139404297	-620.8170166015626	580.8729248046876	182.1143646240235	-621.7203979492189	487.9442749023439	148.0163116455078	-674.8349609375001	492.0025329589845	113.3250198364258	-685.7191772460939	537.6671752929689	123.6249542236328	-714.0177612304689	591.4844360351564	130.4561767578125	-634.0114135742189	486.5863037109376	58.38698959350587	-697.3560791015626	541.0230102539064	58.03715133666994	-724.0106201171876	605.4952392578126	64.35416412353517	-678.5563354492189	523.3878784179689	34.41692733764649	-756.8454589843751	-257.8299560546876	672.7485351562501	-978.3261718750002	-299.7180175781251	710.1572265625001	-1004.812927246094	-284.1428833007813	636.5643310546876	-1051.43701171875	-316.3470764160157	674.6929321289064	-1087.912353515625	-84.30812072753908	311.2749328613282	-1186.964599609375	-105.1742172241211	284.3384704589844	-1228.467651367188	-61.23754119873048	265.2454223632813	-1211.94677734375	-76.15832519531251	249.4933776855469	-1265.275756835938	88.96995544433595	174.8801727294922	-1229.088012695313	83.6205291748047	127.049430847168	-1227.196166992188	122.4002227783203	158.2432861328125	-1258.025390625	-7.086013793945314	168.9653015136719	-1439.5283203125	-42.8972282409668	91.62943267822267	-1370.4384765625	
59	0.2416666666666667	-25.28094291687012	1037.595336914063	-883.2215576171877	-99.00770568847659	996.8001098632815	-815.6011962890627	-70.80518341064455	950.9082031250002	-1075.564697265625	-255.7071075439454	902.356384277344	-941.9703369140627	166.8537139892578	777.0111083984377	-991.2041015625002	140.84228515625	732.0274047851564	-1022.845153808594	194.0193481445313	698.1401367187501	-976.361755371094	162.9515838623047	653.4973754882814	-997.9948730468752	450.6709289550782	400.6626281738282	-724.0062255859376	452.5660705566407	360.5075378417969	-770.8690185546877	477.7712707519532	349.3074951171876	-716.5714721679689	470.0099487304689	305.7916564941407	-757.4791259765626	516.7457275390626	258.0452575683594	-601.1141357421876	485.9201965332032	228.6532592773438	-574.5336303710939	551.4733886718751	231.7737274169922	-579.7438354492189	470.672821044922	182.8094635009766	-629.7615966796876	573.8008422851564	195.2228546142579	-627.8273315429689	483.4097595214845	156.1109619140625	-682.0466918945314	488.5669555664064	120.8740615844727	-691.0960693359376	534.9631958007814	131.2965698242188	-718.4287109375001	585.8506469726564	143.5167999267578	-636.9987182617189	485.6123352050782	64.23192596435548	-700.1509399414064	540.4171142578126	63.09804916381837	-724.3875732421876	602.0506591796876	75.01287841796876	-677.3418579101564	525.8119506835939	32.92207717895509	-755.7544555664064	-265.7438659667969	672.3645629882814	-996.6014404296877	-307.1868286132813	708.3418579101564	-1024.363403320313	-291.4900512695313	635.4184570312501	-1069.545166015625	-324.6333007812501	673.4814453125001	-1105.935791015625	-94.59460449218751	305.5683593750001	-1217.014282226563	-117.4534683227539	279.8457336425782	-1259.536254882813	-74.15827941894533	260.2911376953126	-1244.48291015625	-90.49551391601564	245.6050567626954	-1298.651733398438	73.70030975341798	165.9072265625	-1270.817016601563	66.97251129150392	118.1459121704102	-1270.598999023438	105.8031921386719	149.4097290039063	-1301.315307617188	-28.7626075744629	170.5020751953125	-1478.28564453125	-64.73092651367189	91.76659393310548	-1410.840087890625	
60	0.2458333333333333	-36.01214218139649	1040.174194335938	-902.1748046875002	-109.4569396972657	998.5593261718752	-834.6682128906252	-81.46615600585939	951.1821289062502	-1093.756958007813	-265.8279724121094	904.104187011719	-961.7297363281252	158.5396575927735	780.3945922851565	-1009.401489257813	133.4993743896485	735.0941772460939	-1041.47509765625	186.4993591308594	701.8344116210939	-994.241394042969	156.3988800048828	656.7608642578126	-1016.503540039063	443.4703063964845	408.9382324218751	-736.5243530273439	445.4483947753907	367.5494079589844	-782.7258300781252	470.9634704589845	357.9590454101563	-728.0285034179689	463.778289794922	313.5212707519532	-768.2127685546877	507.410614013672	272.1185913085938	-612.9700927734376	476.9896545410157	243.6836395263672	-585.6030883789064	542.3800659179689	248.1529541015626	-589.0815429687501	463.9706420898439	194.1099243164063	-638.7642211914064	566.9677734375001	209.6928100585938	-634.5261230468751	478.7222290039064	165.0084686279297	-688.7503051757814	485.0667419433595	129.483642578125	-695.9261474609376	531.7520141601564	140.0363006591797	-722.8670043945314	580.2949829101564	157.9248809814453	-640.6774291992189	485.3567810058595	71.24414825439455	-703.1676635742189	539.4307861328126	70.90537261962892	-724.4561157226564	598.6799316406251	87.72119140625001	-676.9511108398439	528.1510620117189	30.56740379333497	-753.9703369140626	-273.7431030273438	671.5266113281251	-1014.98681640625	-314.7016601562501	706.6657714843751	-1043.545166015625	-298.8163146972657	633.5857543945314	-1087.632446289063	-331.3794555664063	670.9714965820314	-1124.801147460938	-104.6876907348633	299.8692016601563	-1247.04052734375	-129.7350616455078	275.4203491210938	-1289.820556640625	-86.09560394287111	254.7215270996094	-1277.111083984375	-105.10595703125	242.310043334961	-1331.511962890625	58.30647277832033	157.5359497070313	-1311.474853515625	50.09722137451173	109.8813095092774	-1312.718505859375	88.83419036865236	141.3227844238282	-1343.35400390625	-49.62085342407228	172.753646850586	-1515.59033203125	-85.84558868408205	91.9732131958008	-1450.369384765625	
